M48
;Layer_Color=9474304
;FILE_FORMAT=4:4
METRIC,TZ
;TYPE=PLATED
T1F00S00C0.9000
T2F00S00C1.0000
%
T01
X803450Y761870
Y781870
X823450Y781870
Y761870
X843450Y761870
Y781870
X863450
Y761870
X883450
X903450
Y781870
X883450
X923450
Y761870
X783450
Y781870
X763450
Y761870
X763450Y961870
X783450
Y981870
X763450Y981870
X803450
X823450
X843450
X863450
X883450
X903450
X923450
Y961870
X903450
X883450
X863450
X843450
X823450
X803450
T02
X809000Y679600
X834400
X859800
X885200
X910600
Y705000
X885200
X859800
X834400
X809000
X968000Y757200
Y782600
Y808000
Y833400
Y858800
Y884200
Y909600
Y935000
Y960400
Y985800
M30
