G04 Layer_Physical_Order=1*
G04 Layer_Color=255*
%FSLAX44Y44*%
%MOMM*%
G71*
G01*
G75*
%ADD10R,1.2000X1.4000*%
%ADD11C,0.8000*%
%ADD12C,0.2540*%
%ADD13C,0.6000*%
%ADD14R,1.6000X1.6000*%
%ADD15R,2.0000X2.0000*%
D10*
X818690Y744000D02*
D03*
X788210D02*
D03*
X818690Y726000D02*
D03*
X788210D02*
D03*
D11*
X863450Y981870D02*
Y995450D01*
X867000Y999000D01*
X863450Y949550D02*
Y961870D01*
X951400Y960400D02*
X968000D01*
X867000Y999000D02*
X938000D01*
X951200Y985800D01*
X968000D01*
X843450Y942550D02*
Y961870D01*
X923450Y761870D02*
X943130D01*
X947800Y757200D01*
X968000D01*
X924180Y782600D02*
X968000D01*
X903450Y781870D02*
Y791450D01*
X920000Y808000D01*
X968000D01*
X922400Y833400D02*
X968000D01*
X883450Y794450D02*
X922400Y833400D01*
X883450Y781870D02*
Y794450D01*
X863450Y781870D02*
Y797450D01*
X924800Y858800D01*
X968000D01*
X926200Y884200D02*
X968000D01*
X843450Y801450D02*
X926200Y884200D01*
X843450Y781870D02*
Y801450D01*
X923600Y909600D02*
X968000D01*
X823450Y809450D02*
X923600Y909600D01*
X823450Y781870D02*
Y809450D01*
X843450Y942550D02*
X855000Y931000D01*
X964000D01*
X968000Y935000D01*
X863450Y949550D02*
X869000Y944000D01*
X935000D01*
X951400Y960400D01*
X803450Y706550D02*
Y761870D01*
X823690Y727000D02*
X835400Y715290D01*
X788210Y726000D02*
Y744000D01*
X803450Y781870D02*
Y795550D01*
X801000Y798000D02*
X803450Y795550D01*
X747000Y794000D02*
X751000Y798000D01*
X801000D01*
X747000Y749000D02*
Y794000D01*
Y749000D02*
X752000Y744000D01*
X788210D01*
X906600Y705000D02*
Y715400D01*
X818690Y744000D02*
X878000D01*
X906600Y715400D01*
X976000Y962000D02*
X986000Y952000D01*
X923600Y679600D02*
X986000Y742000D01*
Y952000D01*
X910600Y679600D02*
X923600Y679600D01*
D12*
X809000Y668000D02*
Y679600D01*
X910600Y668600D02*
Y679600D01*
D13*
X809000Y668000D02*
X814000Y663000D01*
X905000D01*
X910600Y668600D01*
D14*
X783450Y761870D02*
D03*
Y781870D02*
D03*
X803450Y781870D02*
D03*
Y761870D02*
D03*
X823450Y781870D02*
D03*
Y761870D02*
D03*
X843450Y781870D02*
D03*
Y761870D02*
D03*
X863450Y781870D02*
D03*
Y761870D02*
D03*
X883450Y781870D02*
D03*
Y761870D02*
D03*
X903450Y781870D02*
D03*
Y761870D02*
D03*
X923450Y781870D02*
D03*
Y761870D02*
D03*
X763450Y781870D02*
D03*
Y761870D02*
D03*
X923450Y961870D02*
D03*
Y981870D02*
D03*
X903450Y961870D02*
D03*
Y981870D02*
D03*
X883450Y961870D02*
D03*
Y981870D02*
D03*
X863450Y961870D02*
D03*
Y981870D02*
D03*
X843450Y961870D02*
D03*
Y981870D02*
D03*
X823450Y961870D02*
D03*
Y981870D02*
D03*
X803450Y961870D02*
D03*
Y981870D02*
D03*
X783450Y961870D02*
D03*
Y981870D02*
D03*
X763450Y981870D02*
D03*
Y961870D02*
D03*
D15*
X968000Y757200D02*
D03*
Y782600D02*
D03*
Y808000D02*
D03*
Y833400D02*
D03*
Y858800D02*
D03*
Y884200D02*
D03*
Y909600D02*
D03*
Y935000D02*
D03*
Y960400D02*
D03*
Y985800D02*
D03*
X910600Y679600D02*
D03*
Y705000D02*
D03*
X885200Y679600D02*
D03*
Y705000D02*
D03*
X859800Y679600D02*
D03*
Y705000D02*
D03*
X834400Y679600D02*
D03*
Y705000D02*
D03*
X809000Y679600D02*
D03*
Y705000D02*
D03*
M02*
