M48
;Layer_Color=9474304
;FILE_FORMAT=4:4
METRIC,LZ
;TYPE=PLATED
T1F00S00C0.9000
T2F00S00C1.0000
%
T01
X0080345Y0076187
Y0078187
X0082345Y0078187
Y0076187
X0084345Y0076187
Y0078187
X0086345
Y0076187
X0088345
X0090345
Y0078187
X0088345
X0092345
Y0076187
X0078345
Y0078187
X0076345
Y0076187
X0076345Y0096187
X0078345
Y0098187
X0076345Y0098187
X0080345
X0082345
X0084345
X0086345
X0088345
X0090345
X0092345
Y0096187
X0090345
X0088345
X0086345
X0084345
X0082345
X0080345
T02
X00968Y007572
Y007826
Y00808
Y008334
Y008588
Y008842
Y009096
Y00935
Y009604
Y009858
M30
