G04 Layer_Physical_Order=1*
G04 Layer_Color=255*
%FSLAX44Y44*%
%MOMM*%
G71*
G01*
G75*
%ADD10C,0.8000*%
%ADD11R,1.6000X1.6000*%
%ADD12R,2.0000X2.0000*%
D10*
X863450Y981870D02*
Y995450D01*
X867000Y999000D01*
X863450Y949550D02*
Y961870D01*
X951400Y960400D02*
X968000D01*
X867000Y999000D02*
X938000D01*
X951200Y985800D01*
X968000D01*
X843450Y942550D02*
Y961870D01*
X923450Y761870D02*
X943130D01*
X947800Y757200D01*
X968000D01*
X924180Y782600D02*
X968000D01*
X903450Y781870D02*
Y791450D01*
X920000Y808000D01*
X968000D01*
X922400Y833400D02*
X968000D01*
X883450Y794450D02*
X922400Y833400D01*
X883450Y781870D02*
Y794450D01*
X863450Y781870D02*
Y797450D01*
X924800Y858800D01*
X968000D01*
X926200Y884200D02*
X968000D01*
X843450Y801450D02*
X926200Y884200D01*
X843450Y781870D02*
Y801450D01*
X923600Y909600D02*
X968000D01*
X823450Y809450D02*
X923600Y909600D01*
X823450Y781870D02*
Y809450D01*
X843450Y942550D02*
X855000Y931000D01*
X964000D01*
X968000Y935000D01*
X863450Y949550D02*
X869000Y944000D01*
X935000D01*
X951400Y960400D01*
D11*
X783450Y761870D02*
D03*
Y781870D02*
D03*
X803450Y781870D02*
D03*
Y761870D02*
D03*
X823450Y781870D02*
D03*
Y761870D02*
D03*
X843450Y781870D02*
D03*
Y761870D02*
D03*
X863450Y781870D02*
D03*
Y761870D02*
D03*
X883450Y781870D02*
D03*
Y761870D02*
D03*
X903450Y781870D02*
D03*
Y761870D02*
D03*
X923450Y781870D02*
D03*
Y761870D02*
D03*
X763450Y781870D02*
D03*
Y761870D02*
D03*
X923450Y961870D02*
D03*
Y981870D02*
D03*
X903450Y961870D02*
D03*
Y981870D02*
D03*
X883450Y961870D02*
D03*
Y981870D02*
D03*
X863450Y961870D02*
D03*
Y981870D02*
D03*
X843450Y961870D02*
D03*
Y981870D02*
D03*
X823450Y961870D02*
D03*
Y981870D02*
D03*
X803450Y961870D02*
D03*
Y981870D02*
D03*
X783450Y961870D02*
D03*
Y981870D02*
D03*
X763450Y981870D02*
D03*
Y961870D02*
D03*
D12*
X968000Y757200D02*
D03*
Y782600D02*
D03*
Y808000D02*
D03*
Y833400D02*
D03*
Y858800D02*
D03*
Y884200D02*
D03*
Y909600D02*
D03*
Y935000D02*
D03*
Y960400D02*
D03*
Y985800D02*
D03*
M02*
